
[code]
IMDB: 
http://www.imdb.com/title/tt1622979/
Trailer:
Genre:
Horror | Thriller  
Rating:Ratings: 
6.4/10 from 683 users   Metascore: 51/100 
Plot:
Survivors of a suspension-bridge collapse learn there's no way you can cheat Death.


Format                           : MPEG-4
Format profile                   : Base Media / Version 2
Codec ID                         : mp42
File size                        : 402 MiB
Duration                         : 1h 27mn
Overall bit rate                 : 645 Kbps

Video

ID                               : 1
Format                           : AVC
Format/Info                      : Advanced Video Codec
Format profile                   : Main@L3.0
Format settings, CABAC           : Yes
Format settings, ReFrames        : 4 frames
Codec ID                         : avc1
Codec ID/Info                    : Advanced Video Coding
Duration                         : 1h 27mn
Bit rate mode                    : Variable
Bit rate                         : 526 Kbps
Width                            : 624 pixels
Height                           : 314 pixels
Display aspect ratio             : 1.987
Frame rate mode                  : Constant
Frame rate                       : 29.970 fps
Color space                      : YUV
Chroma subsampling               : 4:2:0
Bit depth                        : 8 bits
Scan type                        : Progressive
Bits/(Pixel*Frame)               : 0.090
Stream size                      : 329 MiB (82%)
Writing library                  : x264 core 112


Audio

ID                               : 2
Format                           : AAC
Format/Info                      : Advanced Audio Codec
Format profile                   : LC
Codec ID                         : 40
Duration                         : 1h 27mn
Bit rate mode                    : Variable
Bit rate                         : 112 Kbps
Maximum bit rate                 : 182 Kbps
Channel(s)                       : 2 channels
Channel positions                : Front: L R
Sampling rate                    : 44.1 KHz
Compression mode                 : Lossy
Stream size                      : 69.7 MiB (17%)
[/code]
Screens:
[img]http://img855.imageshack.us/img855/6793/77713947.png[/img]
[img]http://img684.imageshack.us/img684/857/93830668.png[/img]
[img]http://img856.imageshack.us/img856/3622/62661530.png[/img]
[img]http://img14.imageshack.us/img14/6692/61538141.png[/img]
[img]http://img683.imageshack.us/img683/8917/49200023.png[/img]
[img]http://img143.imageshack.us/img143/4682/final5pq.jpg[/img]